<svg width="620" height="514" viewBox="0 0 620 514" fill="none" xmlns="http://www.w3.org/2000/svg">
<path d="M231.666 100.202V0.5H251.39C281.239 0.5 305.366 26.9851 305.325 59.4943V59.4949V122.121C305.325 154.558 280.874 179.029 250.998 179.029L150.305 178.507L150.292 178.507C126.662 179.032 102.62 191.363 90.3865 211.094C82.7368 222.694 77.7826 239.887 77.7826 255.202C77.7826 270.469 80.63 287.157 88.2987 298.788C94.3941 308.63 104.006 317.553 115.019 324.017C126.035 330.482 138.487 334.507 150.274 334.507H200.897H252.042C266.991 334.507 280.309 339.59 289.886 348.707C299.459 357.821 305.325 370.994 305.325 387.239V412.311H146.829C67.2418 412.311 2.5441 343.707 1.02136 257.63C-0.542051 168.856 67.9527 100.702 149.747 100.702H231.166H231.666V100.202Z" fill="url(#paint0_linear_157_162956)" stroke="url(#paint1_linear_157_162956)"/>
<path d="M63.2504 196.066C69.9771 137.434 107.225 108.175 138.3 100.202C102.273 102.889 70.0596 114.904 45.34 140.57C16.8651 170.132 -0.79764 211.474 0.0277208 257.116C0.811814 302.49 19.1761 343.205 47.9812 371.603C81.5321 354.403 98.6364 311.044 98.6364 311.044C98.6364 311.044 54.7079 270.554 63.2504 196.066Z" fill="#0050B2"/>
<path d="M305.493 412.901V386.564C305.493 353.821 280.631 333.485 250.505 333.485H149.259C134.361 333.485 118.468 325.657 106.987 317.828C106.987 317.828 48.5173 277.811 52.8917 184.734C54.7488 145.229 76.8562 123.067 101.246 106.987C43.3165 122.643 -1.25196 185.899 0.0273502 257.117C1.55427 343.43 66.4689 412.901 146.364 412.901H305.493Z" fill="url(#paint2_linear_157_162956)"/>
<path d="M140.387 402.374C51.6667 389.327 6.26263 310.522 6.26263 249.983C5.56107 211.104 23.7955 169.425 45.2136 141.431C16.8625 170.904 -0.758966 212.201 0.025127 257.798C1.55204 344.111 66.4667 413.582 146.362 413.582L305.825 412.811C305.825 412.811 229.108 411.246 140.387 402.374Z" fill="#FB885B"/>
<path d="M388.334 413.06L388.334 512.762L368.61 512.762C338.761 512.762 314.634 486.277 314.675 453.768L314.675 453.767L314.675 391.141C314.675 358.704 339.126 334.233 369.002 334.233L469.695 334.755L469.708 334.755C493.338 334.23 517.38 321.899 529.613 302.168C537.263 290.568 542.217 273.375 542.217 258.06C542.217 242.793 539.37 226.105 531.701 214.475C525.606 204.632 515.994 195.709 504.981 189.245C493.965 182.78 481.513 178.755 469.726 178.755L419.103 178.755L367.958 178.755C353.009 178.755 339.691 173.673 330.114 164.555C320.541 155.441 314.675 142.268 314.675 126.023L314.675 100.951L473.171 100.951C552.758 100.951 617.456 169.555 618.979 255.632C620.542 344.406 552.047 412.56 470.253 412.56L388.834 412.56L388.334 412.56L388.334 413.06Z" fill="url(#paint3_linear_157_162956)" stroke="url(#paint4_linear_157_162956)"/>
<path d="M556.75 317.196C550.023 375.828 512.775 405.087 481.7 413.06C517.727 410.373 549.94 398.358 574.66 372.693C603.135 343.13 620.798 301.788 619.972 256.146C619.188 210.772 600.824 170.057 572.019 141.659C538.468 158.859 521.364 202.218 521.364 202.218C521.364 202.218 565.292 242.708 556.75 317.196Z" fill="#0050B2"/>
<path d="M314.507 100.361L314.507 126.699C314.507 159.441 339.369 179.777 369.495 179.777L470.741 179.777C485.639 179.777 501.532 187.605 513.013 195.434C513.013 195.434 571.483 235.452 567.108 328.528C565.251 368.034 543.144 390.195 518.754 406.276C576.684 390.619 621.252 327.363 619.973 256.145C618.446 169.832 553.531 100.361 473.636 100.361L314.507 100.361Z" fill="url(#paint5_linear_157_162956)"/>
<path d="M479.613 110.888C568.333 123.935 613.737 202.74 613.737 263.279C614.439 302.158 596.204 343.837 574.786 371.831C603.138 342.358 620.759 301.061 619.975 255.464C618.448 169.151 553.533 99.6797 473.638 99.6797L314.175 100.451C314.175 100.451 390.892 102.016 479.613 110.888Z" fill="#FB885B"/>
<circle cx="391.97" cy="256.971" r="11.5" transform="rotate(45 391.97 256.971)" fill="#0085FF" stroke="#78CBFF"/>
<circle cx="451.911" cy="256.971" r="11.5" transform="rotate(45 451.911 256.971)" fill="#0085FF" stroke="#78CBFF"/>
<circle cx="421.97" cy="226.971" r="11.5" transform="rotate(45 421.97 226.971)" fill="#0085FF" stroke="#78CBFF"/>
<circle cx="421.97" cy="286.912" r="11.5" transform="rotate(45 421.97 286.912)" fill="#0085FF" stroke="#78CBFF"/>
<rect x="184.747" y="215" width="20.8754" height="83.5017" rx="10.4377" fill="#FB885B"/>
<rect x="236.936" y="246.313" width="20.8754" height="83.5017" rx="10.4377" transform="rotate(90 236.936 246.313)" fill="#FB885B"/>
<defs>
<linearGradient id="paint0_linear_157_162956" x1="112.607" y1="347.342" x2="363.172" y2="107.856" gradientUnits="userSpaceOnUse">
<stop stop-color="#0069E8"/>
<stop offset="1" stop-color="#3C94FF"/>
</linearGradient>
<linearGradient id="paint1_linear_157_162956" x1="295.387" y1="24.5286" x2="61.5822" y2="275.034" gradientUnits="userSpaceOnUse">
<stop stop-color="#78CBFF"/>
<stop offset="1" stop-color="#78CBFF" stop-opacity="0"/>
</linearGradient>
<linearGradient id="paint2_linear_157_162956" x1="22.9121" y1="162.524" x2="292.129" y2="406.919" gradientUnits="userSpaceOnUse">
<stop stop-color="#0058C3"/>
<stop offset="1" stop-color="#00A3FF"/>
</linearGradient>
<linearGradient id="paint3_linear_157_162956" x1="507.393" y1="165.92" x2="256.828" y2="405.406" gradientUnits="userSpaceOnUse">
<stop stop-color="#0069E8"/>
<stop offset="1" stop-color="#3C94FF"/>
</linearGradient>
<linearGradient id="paint4_linear_157_162956" x1="326.701" y1="494.225" x2="606.431" y2="222.845" gradientUnits="userSpaceOnUse">
<stop stop-color="#78CBFF"/>
<stop offset="1" stop-color="#78CBFF" stop-opacity="0"/>
</linearGradient>
<linearGradient id="paint5_linear_157_162956" x1="597.088" y1="350.739" x2="327.871" y2="106.343" gradientUnits="userSpaceOnUse">
<stop stop-color="#0058C3"/>
<stop offset="1" stop-color="#00A3FF"/>
</linearGradient>
</defs>
</svg>
